<?xml version="1.0" encoding="utf-8"?>
<!-- Generator: Adobe Illustrator 19.2.1, SVG Export Plug-In . SVG Version: 6.00 Build 0)  -->
<svg version="1.1" id="Layer_1" xmlns="http://www.w3.org/2000/svg" xmlns:xlink="http://www.w3.org/1999/xlink" x="0px" y="0px"
	 viewBox="0 0 48 48" style="enable-background:new 0 0 48 48;" xml:space="preserve">
<path d="M17.2,31c-3.5-2.1-5.7-5-6.6-8.9c-0.2-0.9-0.3-1.9-0.3-2.8c0-0.9,0.4-1.4,1.4-1.5c0.1,0,0.3,0,0.4,0c7.8,0,15.7,0,23.5,0
	c1.3,0,1.8,0.5,1.8,1.9c-0.3,4.5-2.2,8.1-5.9,10.7c-0.3,0.2-0.6,0.4-0.9,0.6c0.5,1.2,1,2.4,1.6,3.6c-1.1,0.6-2.1,1.1-3.2,1.7
	c-0.5-1.1-1-2.1-1.4-3.3c-0.2-0.5-0.5-0.6-1.1-0.6c-1.7,0.1-3.4,0-5.1,0c-0.3,0-0.7,0.1-0.8,0.3c-1,2.3-2,4.6-3.1,7
	c3.2,0,6.3,0,9.4,0c0,1.2,0,2.3,0,3.6c-0.3,0-0.6,0-0.9,0c-3.1,0-6.2,0-9.2,0c-0.7,0-1,0.2-1.2,0.8c-0.2,0.5-0.4,0.9-0.6,1.4
	c-0.5,1.1-1.5,1.5-2.5,1.1c-0.9-0.4-1.3-1.4-0.8-2.5c1.3-3,2.6-6,3.9-9C16,33.8,16.6,32.4,17.2,31z M13.2,20.6
	c0.3,4.4,4.8,9.1,8.8,9.1c-3-2.3-4.4-5.5-4.9-9.1C15.8,20.6,14.5,20.6,13.2,20.6z"/>
<path d="M38.8,41.6c0,2.9-2.3,5.2-5.1,5.2c-2.8,0-5.2-2.3-5.2-5.1c0-2.8,2.3-5.2,5.1-5.2C36.5,36.4,38.8,38.7,38.8,41.6z M36.1,41.6
	c0-1.3-1.1-2.4-2.5-2.4c-1.3,0-2.4,1.1-2.4,2.4c0,1.4,1.2,2.5,2.5,2.5C35,44,36.1,42.9,36.1,41.6z"/>
<path d="M30.6,15.5c-2-0.9-2.6-4.5-1-6.6c1.4-1.8,0.9-4.3,0.5-6.1c0.4,0.2,3.2,4.6,1.5,7C30.2,11.9,30.1,13.5,30.6,15.5z"/>
<path d="M24.1,15.5c-2-0.9-2.6-4.5-1-6.6c1.4-1.8,0.9-4.3,0.5-6.1c0.4,0.2,3.2,4.6,1.5,7C23.7,11.9,23.6,13.5,24.1,15.5z"/>
<path d="M17.6,15.5c-2-0.9-2.6-4.5-1-6.6c1.4-1.8,0.9-4.3,0.5-6.1c0.4,0.2,3.2,4.6,1.5,7C17.1,11.9,17,13.5,17.6,15.5z"/>
</svg>
