<?xml version="1.0" encoding="utf-8"?>
<!-- Generator: Adobe Illustrator 19.2.1, SVG Export Plug-In . SVG Version: 6.00 Build 0)  -->
<svg version="1.1" id="Layer_1" xmlns="http://www.w3.org/2000/svg" xmlns:xlink="http://www.w3.org/1999/xlink" x="0px" y="0px"
	 viewBox="0 0 48 48" style="enable-background:new 0 0 48 48;" xml:space="preserve">
<path d="M17,15C8.2,15,1,22.2,1,31s7.2,16,16,16s16-7.2,16-16S25.8,15,17,15z M17,35c-2.2,0-4-1.8-4-4s1.8-4,4-4s4,1.8,4,4
	S19.2,35,17,35z"/>
<path d="M47,5h-6v11c0,2.8-2.2,5-5,5s-5-2.2-5-5s2.2-5,5-5c1.1,0,2.2,0.4,3,1V1h8V5z"/>
</svg>
