<?xml version="1.0" encoding="utf-8"?>
<!-- Generator: Adobe Illustrator 19.2.1, SVG Export Plug-In . SVG Version: 6.00 Build 0)  -->
<svg version="1.1" id="Layer_1" xmlns="http://www.w3.org/2000/svg" xmlns:xlink="http://www.w3.org/1999/xlink" x="0px" y="0px"
	 viewBox="0 0 48 48" style="enable-background:new 0 0 48 48;" xml:space="preserve">
<style type="text/css">
	.st0{fill:#FFFFFF;}
</style>
<g id="ajSfsT.tif">
	<g>
		<path class="st0" d="M3.9,29.8c0,0.6,0,1.1,0,1.6c0,3.9,0,7.8,0,11.8c0,1.8,1.2,3,3.1,3c4.1,0,8.2,0,12.3,0c1.7,0,2.9-1.2,2.9-3
			c0-4,0-7.9,0-11.9c0-0.5,0-1,0-1.5c0.7-0.1,1.2-0.1,1.7-0.2c0.6-4.1-1.5-8.9-5.1-11.1c-3.9-2.4-7.9-2.3-11.7,0.2
			c-3,2-6,6.6-4.8,10.9C2.7,29.7,3.2,29.7,3.9,29.8z M36.9,33.5c0-0.8,0-1.3,0-1.9c0-9,0-17.9,0-26.9c0-0.4,0.1-0.9,0-1.3
			c-0.2-1-0.8-1.7-1.8-1.6c-1,0-1.7,0.6-1.7,1.7c0,0.4,0,0.8,0,1.3c0,9.1,0,18.1,0,27.2c0,1.1-0.3,1.6-1.5,1.5c-1.5-0.1-3-0.1-4.5,0
			c-0.5,0-1.3,0.5-1.3,0.9c-0.2,1.1-0.1,2.3-0.1,3.4c6.2,0,12.2,0,18.3,0c0-0.6,0-1.1,0-1.6c0-2.5-0.3-2.8-2.8-2.8
			C40,33.5,38.6,33.5,36.9,33.5z M46,46.1c-0.5-2.2-1-4.2-1.5-6.2c-0.2-0.7-0.5-1-1.3-1c-5.5,0-10.9,0-16.4,0c-0.4,0-1,0.3-1.1,0.6
			c-0.6,2.1-1.1,4.3-1.7,6.5C31.5,46.1,38.6,46.1,46,46.1z"/>
		<path d="M3.9,29.8c-0.7-0.1-1.2-0.1-1.6-0.1C1.1,25.4,4.1,20.7,7,18.8c3.8-2.5,7.8-2.6,11.7-0.2c3.6,2.2,5.8,6.9,5.1,11.1
			c-0.5,0-1,0.1-1.7,0.2c0,0.5,0,1,0,1.5c0,4,0,7.9,0,11.9c0,1.8-1.2,3-2.9,3c-4.1,0-8.2,0-12.3,0c-1.8,0-3.1-1.2-3.1-3
			c0-3.9,0-7.8,0-11.8C3.9,30.9,3.9,30.4,3.9,29.8z M4.9,26.1c5.5,0,10.9,0,16.3,0c-1-3.9-4.3-6.7-8-6.7C9.5,19.3,6.1,22,4.9,26.1z"
			/>
		<path d="M36.9,33.5c1.7,0,3.1,0,4.6,0c2.4,0,2.8,0.3,2.8,2.8c0,0.5,0,1,0,1.6c-6.2,0-12.1,0-18.3,0c0-1.1-0.1-2.3,0.1-3.4
			c0.1-0.4,0.8-0.8,1.3-0.9c1.5-0.1,3-0.1,4.5,0c1.2,0.1,1.5-0.4,1.5-1.5c0-9.1,0-18.1,0-27.2c0-0.4,0-0.9,0-1.3
			C33.4,2.4,34,1.8,35,1.8c1,0,1.7,0.6,1.8,1.6c0.1,0.4,0,0.8,0,1.3c0,9,0,17.9,0,26.9C36.9,32.2,36.9,32.7,36.9,33.5z"/>
		<path d="M46,46.1c-7.4,0-14.5,0-21.9,0c0.6-2.2,1.1-4.4,1.7-6.5c0.1-0.3,0.7-0.6,1.1-0.6c5.5,0,10.9,0,16.4,0c0.8,0,1.1,0.3,1.3,1
			C45,42,45.5,44,46,46.1z"/>
		<path class="st0" d="M4.9,26.1c1.2-4.1,4.6-6.8,8.3-6.7c3.7,0.1,7,2.8,8,6.7C15.8,26.1,10.4,26.1,4.9,26.1z"/>
	</g>
</g>
</svg>
