<?xml version="1.0" encoding="utf-8"?>
<!-- Generator: Adobe Illustrator 19.2.1, SVG Export Plug-In . SVG Version: 6.00 Build 0)  -->
<svg version="1.1" id="Layer_1" xmlns="http://www.w3.org/2000/svg" xmlns:xlink="http://www.w3.org/1999/xlink" x="0px" y="0px"
	 viewBox="0 0 48 48" style="enable-background:new 0 0 48 48;" xml:space="preserve">
<g>
	<path d="M23.9,35l-8,4.7V46h-2.6c0,0,0-17,0-17.6c-0.7,0-1.7-0.1-2.5-0.1c-0.6-1.3-0.7-2.6,0-4.1c6.7,0,13.4,0,20.2,0
		C31.1,23.8,34.2,2,34.2,2s2.3,0.2,3.5,0.6c-0.1,0.8-2.9,22.5-2.9,22.5L34.7,46h-2.8v-6.3L23.9,35z M18,28.6l5.9,3.3l5.7-3.6
		L18,28.6z M16.1,30.3l0,6.2l5.1-3L16.1,30.3z M26.4,33.5l5.4,3.3l0-6.3L26.4,33.5z"/>
</g>
</svg>
