<?xml version="1.0" encoding="utf-8"?>
<!-- Generator: Adobe Illustrator 19.2.1, SVG Export Plug-In . SVG Version: 6.00 Build 0)  -->
<svg version="1.1" id="Layer_1" xmlns="http://www.w3.org/2000/svg" xmlns:xlink="http://www.w3.org/1999/xlink" x="0px" y="0px"
	 viewBox="0 0 48 48" style="enable-background:new 0 0 48 48;" xml:space="preserve">
<style type="text/css">
	.st0{fill:#FFFFFF;}
</style>
<path d="M36,4L12,4C9.8,4,8,5.8,8,8v32c0,2.2,1.8,4,4,4h24c2.2,0,4-1.8,4-4V8C40,5.8,38.2,4,36,4z M20,8c1.1,0,2,0.9,2,2s-0.9,2-2,2
	s-2-0.9-2-2S18.9,8,20,8z M14,8c1.1,0,2,0.9,2,2s-0.9,2-2,2s-2-0.9-2-2S12.9,8,14,8z"/>
<path class="st0" d="M35,18.9H13c-0.6,0-1-0.5-1-1v-2c0-0.6,0.4-1,1-1h22c0.5,0,1,0.4,1,1v2C36,18.4,35.5,18.9,35,18.9z"/>
</svg>
