<?xml version="1.0" encoding="utf-8"?>
<!-- Generator: Adobe Illustrator 19.2.1, SVG Export Plug-In . SVG Version: 6.00 Build 0)  -->
<svg version="1.1" id="Layer_1" xmlns="http://www.w3.org/2000/svg" xmlns:xlink="http://www.w3.org/1999/xlink" x="0px" y="0px"
	 viewBox="0 0 48 48" style="enable-background:new 0 0 48 48;" xml:space="preserve">
<path d="M8,12H4v28c0,2.2,1.8,4,4,4h28v-4H8V12z"/>
<path d="M40,4H16c-2.2,0-4,1.8-4,4v24c0,2.2,1.8,4,4,4h24c2.2,0,4-1.8,4-4V8C44,5.8,42.2,4,40,4z M25,10h6v5.5l-3,3l-3-3V10z M18,23
	v-6h5.5l3,3l-3,3H18z M31,30h-6v-5.5l3-3l3,3V30z M38,23h-5.5l-3-3l3-3H38V23z"/>
</svg>
