<?xml version="1.0" encoding="utf-8"?>
<!-- Generator: Adobe Illustrator 19.2.1, SVG Export Plug-In . SVG Version: 6.00 Build 0)  -->
<svg version="1.1" id="Layer_1" xmlns="http://www.w3.org/2000/svg" xmlns:xlink="http://www.w3.org/1999/xlink" x="0px" y="0px"
	 viewBox="0 0 48 48" style="enable-background:new 0 0 48 48;" xml:space="preserve">
<path d="M37.8,15c-0.4-1.2-1.5-2-2.8-2H13c-1.3,0-2.4,0.8-2.8,2L6,27v16c0,1.1,0.9,2,2,2h2c1.1,0,2-0.9,2-2v-2h24v2c0,1.1,0.9,2,2,2
	h2c1.1,0,2-0.9,2-2V27L37.8,15z M13,35c-1.7,0-3-1.3-3-3s1.3-3,3-3s3,1.3,3,3S14.7,35,13,35z M35,35c-1.7,0-3-1.3-3-3s1.3-3,3-3
	s3,1.3,3,3S36.7,35,35,35z M10,25l3-9h22l3,9H10z"/>
<path d="M44,2H4C2.9,2,2,2.9,2,4v2c0,1.1,0.9,2,2,2h40c1.1,0,2-0.9,2-2V4C46,2.9,45.1,2,44,2z"/>
</svg>
