<?xml version="1.0" encoding="utf-8"?>
<!-- Generator: Adobe Illustrator 19.2.1, SVG Export Plug-In . SVG Version: 6.00 Build 0)  -->
<svg version="1.1" id="Layer_1" xmlns="http://www.w3.org/2000/svg" xmlns:xlink="http://www.w3.org/1999/xlink" x="0px" y="0px"
	 viewBox="0 0 48 48" style="enable-background:new 0 0 48 48;" xml:space="preserve">
<path d="M42,6H6c-2.2,0-4,1.8-4,4v24c0,2.2,1.8,4,4,4h10v4h16v-4h10c2.2,0,4-1.8,4-4l0-24C46,7.8,44.2,6,42,6z M42,34H6V10h36V34z"
	/>
<g>
	<path d="M22,28h-3v-4h-4v4h-3V16h3v5h4v-5h3V28z M26,16h8c1.1,0,2,0.9,2,2v8c0,1.1-0.9,2-2,2h-8V16z M29,25h4v-6h-4V25z"/>
</g>
</svg>
