<?xml version="1.0" encoding="utf-8"?>
<!-- Generator: Adobe Illustrator 19.2.1, SVG Export Plug-In . SVG Version: 6.00 Build 0)  -->
<svg version="1.1" id="Layer_1" xmlns="http://www.w3.org/2000/svg" xmlns:xlink="http://www.w3.org/1999/xlink" x="0px" y="0px"
	 viewBox="0 0 48 48" style="enable-background:new 0 0 48 48;" xml:space="preserve">
<style type="text/css">
	.st0{fill:none;stroke:#000000;stroke-width:2;stroke-miterlimit:10;}
</style>
<path d="M27,11.2c2.2,0,4-1.8,4-4s-1.8-4-4-4s-4,1.8-4,4S24.8,11.2,27,11.2z M19.5,18L14,46.2h4.2l3.5-16l4.3,4v12h4V31.1L25.9,27
	l1.2-6c2.6,3.2,6.5,5.2,10.9,5.2v-4c-3.7,0-6.9-2-8.7-4.9l-1.9-3.2c-0.7-1.2-2-1.9-3.4-1.9c-0.5,0-1,0.1-1.5,0.3L12,16.8v9.4h4v-6.7
	L19.5,18"/>
<line class="st0" x1="36.1" y1="25.8" x2="34.7" y2="46.2"/>
</svg>
