<?xml version="1.0" encoding="utf-8"?>
<!-- Generator: Adobe Illustrator 19.2.1, SVG Export Plug-In . SVG Version: 6.00 Build 0)  -->
<svg version="1.1" id="Layer_1" xmlns="http://www.w3.org/2000/svg" xmlns:xlink="http://www.w3.org/1999/xlink" x="0px" y="0px"
	 viewBox="0 0 48 48" style="enable-background:new 0 0 48 48;" xml:space="preserve">
<g id="s1wDGv.tif">
	<g>
		<path d="M22.2,16.3c0,0.9,0,1.7,0,2.7c1.4,0,2.8,0,4.2,0c0.3,0,0.7-0.4,1-0.7C31,14.5,34.6,10.8,38.2,7c0.2-0.2,0.5-0.5,0.9-0.9
			c-0.1,1-0.2,1.7-0.2,2.5c0,0.4,0.2,0.9,0.6,1.2c1.7,1.2,3.4,2.3,5.1,3.5c1.3,0.9,1.7,1.7,1.3,2.8c-0.4,1.1-1.2,1.5-2.8,1.4
			c-1.2,3.1-3.4,4.5-6.9,3.9c-1.1,2.3-2.2,4.6-3.4,6.9c-1,1.7-1.3,3.5-1.3,5.5c0.1,3.3,0,6.7,0,10.1c0,1.1-0.7,1.9-1.7,2.1
			c-1,0.1-1.9-0.4-2.2-1.3c-0.1-0.4-0.1-0.8-0.1-1.2c0-3.8,0-7.7,0-11.5c0-0.4,0-0.8,0-1.2c-0.3,0-0.6-0.1-0.9-0.1
			c-2.9,0-5.8,0-8.7,0c-0.4,0-0.9,0.3-1.1,0.6c-1.4,1.6-1.5,3.2-0.4,5.1c1.1,2,1.9,4.3,2.8,6.4c0.6,1.4,0.2,2.5-0.9,3
			c-1.1,0.5-2.2-0.1-2.8-1.5c-1.3-3.1-2.7-6.1-3.9-9.3c-0.4-1.1-0.3-2.5-0.5-3.8c-0.8,1.4-2,2.3-1.9,4.1c0.1,2.8,0,5.5,0,8.3
			c0,1.5-0.8,2.4-2,2.4c-1.2,0-2-0.9-2-2.3c0-3.4,0-6.8,0-10.3c0-0.5,0.2-1.1,0.5-1.4c1-1.2,1.3-2.6,1.2-4.2c-0.1-2.1,0-4.2-0.1-6.3
			c-0.8,1.1-1.7,2-1.6,3.5c0.1,2,0,4,0,6c-1,0-2,0-3.1,0c0-2.8-0.2-5.6,0.1-8.3c0.2-2,2.1-3.5,4.2-3.5c2.8,0,5.6,0,8.4,0
			c0.4,0,0.8,0,1.3,0c0-1.2,0-2.4,0-3.5c0-1.2,0-2.3,0-3.5c0.1-1.7,1.3-2.9,2.9-2.9c1.7,0,3.1,1.2,3.1,2.9c0,1,0.4,1.4,1.3,1.6
			c0.9,0.2,1.8,0.4,2.7,0.7c1.3,0.3,1.8,1,1.6,1.9c-0.2,0.9-1,1.3-2.4,1C24.3,16.8,23.3,16.6,22.2,16.3z M41.8,17.2
			c-3-1.1-3-1.1-4.4,1.7c-0.2,0.4-0.4,0.9-0.6,1.3C38.9,20.8,41.1,19.5,41.8,17.2z"/>
		<path d="M19.1,2.2c1.7,0,3.1,1.3,3,3c0,1.7-1.4,3.1-3.1,3c-1.6,0-3-1.4-3-3C16,3.5,17.4,2.2,19.1,2.2z"/>
	</g>
</g>
</svg>
