<?xml version="1.0" encoding="utf-8"?>
<!-- Generator: Adobe Illustrator 19.2.1, SVG Export Plug-In . SVG Version: 6.00 Build 0)  -->
<svg version="1.1" id="Layer_1" xmlns="http://www.w3.org/2000/svg" xmlns:xlink="http://www.w3.org/1999/xlink" x="0px" y="0px"
	 viewBox="0 0 48 48" style="enable-background:new 0 0 48 48;" xml:space="preserve">
<g>
	<g id="UFQ1jG.tif">
		<g>
			<path d="M42.8,25.9c-2.6,0.6-5.1,1.1-7.5,1.7c-2.4,0.5-4.8,1.1-7.2,1.6c-2.4,0.5-4.9,0.9-7.2,1.7c0,0.1,0.1,0.2,0.1,0.4
				c0.8-0.1,1.6-0.2,2.3-0.4c5.2-1.1,10.4-2.3,15.6-3.4c1.7-0.4,3.3-0.7,5-1.1c0.3-0.1,0.6-0.1,1.1-0.1c0.5,0.1,0.9,0.2,1.1,0.7
				c0.1,0.5,0,1-0.4,1.3c-1.1,0.8-2.2,1.5-3.4,2.3c-2.4,1.5-4.8,3-7.2,4.4c-0.1,0.1-0.3,0.2-0.5,0.3c-0.7,0.5-1.4,0.6-2.2,0.1
				c-1.5-0.9-3.1-1.6-4.9-2c-1.9-0.4-3.7-0.3-5.5,0.5c-2.2,1-4.4,2-6.5,3.1c-2.4,1.3-5,1.8-7.7,1.5c-0.3,0-0.7-0.1-1-0.2
				c-0.4-0.1-0.5-0.4-0.3-0.8c0.8-1.8,2-3.1,3.8-3.6c1.3-0.4,2.7-0.7,4.1-1c0.6-0.1,1-0.3,1.4-0.7c0.7-0.9,1.5-1.7,2.1-2.6
				c0.8-1.1,0.8-2.1-0.2-3.2c-0.7-0.8-1.6-1.6-2.4-2.3c-1.6-1.3-2.1-2.5-1.4-4.4c0.8-2.3,1.7-4.5,3.1-6.5c0.7-1,1.5-1.8,2.7-1.5
				c1.3,0.3,2.2,1,2.4,2.5c0.1,0.7,0.1,1.2,0.4,2c0.7,2.2,1.7,3.3,3.4,4.3c0.6,0.3,1.1,0.4,1.7-0.1c0.2-0.2,0.4-0.4,0.6-0.5
				c0.3-0.2,0.6-0.2,1,0.2c0.4,0.5,0.5,1.1,0.1,1.4c-1,0.9-2,1.7-3,2.4c-0.7,0.5-1.4,0-1.3-0.9c0-0.3,0.3-0.6-0.2-0.8
				c-2.2-0.9-3.5-2.7-4.6-4.9c-0.6,1.2-1.1,2.3-1.7,3.4c-0.3,0.6-0.1,1.1,0.3,1.6c1.4,1.2,2.5,2.6,3.2,4.4c0.2,0.5,0.6,0.6,1,0.6
				c0.6,0,1.3,0,1.9,0c1.5-0.1,2.6-0.7,2.7-2.3c0-1.8,1.5-2.2,2.4-3.2c0.1-0.1,0.4-0.2,0.7-0.1c3.8,0.7,7.6,1.5,11,3.3
				c0.3,0.2,0.5,0.3,0.8,0.5C42.5,25.5,42.6,25.6,42.8,25.9z"/>
			<path d="M2.2,37.5c1,0.4,1.6,0.6,2.5,1c3.2,1.3,6.4,1.4,9.5,0c2.2-1,4.4-2.1,6.5-3.1c1.3-0.6,2.7-1.2,4.2-1.3
				c2.3-0.1,4.2,0.7,6.2,1.7c1.2,0.6,2.4,1.3,3.6,1.9c1.8,0.9,3.7,0.9,5.6,0.1c0.8-0.3,1.5-0.7,2.3-1c0.1,0,0.2-0.1,0.3-0.1
				c0.2,0,0.4,0.2,0.5,0.4c0,0.2,0,0.3-0.1,0.4c-0.8,0.8-1.5,1.6-2.4,2.3c-2.5,1.7-5,1.2-7.5,0c-1.1-0.5-2.2-1.1-3.3-1.6
				c-3.1-1.6-6.1-1.8-9.2,0c-1.6,0.9-3.2,1.7-4.9,2.4c-1.1,0.5-2.3,0.9-3.4,1.3c-1.3,0.5-2.6,0.4-4,0c-2.5-0.8-4.6-1.8-6.3-3.8
				C2.1,38,1.8,37.4,2.2,37.5z"/>
			<path d="M16.1,26c1.5,0.6,1.8,2,0.9,3.3c-1.5,2.1-1.6,2.1-3.7,0.7c-0.8-0.5-1.5-1.1-2-1.9c-0.8-1.2,0-2.6,1.5-2.8
				c0.2,0,0.4,0,0.5,0C13.2,25.2,15.2,25.6,16.1,26z"/>
		</g>
	</g>
	<circle cx="21.3" cy="8.5" r="2.8"/>
</g>
</svg>
