<?xml version="1.0" encoding="utf-8"?>
<!-- Generator: Adobe Illustrator 19.2.1, SVG Export Plug-In . SVG Version: 6.00 Build 0)  -->
<svg version="1.1" id="Layer_1" xmlns="http://www.w3.org/2000/svg" xmlns:xlink="http://www.w3.org/1999/xlink" x="0px" y="0px"
	 viewBox="0 0 48 48" style="enable-background:new 0 0 48 48;" xml:space="preserve">
<g>
	<circle cx="23.1" cy="17.8" r="2"/>
	<path d="M46.5,26.6H30.1l-0.6-2.1c0.2-0.2,0.3-0.4,0.3-0.7c0-0.5-0.3-0.9-0.8-1l-0.6-2.4l0.1-0.1c0.5-0.3,0.6-0.9,0.3-1.4
		c-0.2-0.3-0.5-0.4-0.9-0.4l-0.5-2.1c0-0.2,0-0.4,0.2-0.5c0.5-0.3,0.7-0.9,0.6-1.5L27.3,11c-0.1-0.4-0.2-0.8-1.8-0.3
		c-1.6,0.4-1.5,0.8-1.4,1.2l0.9,3.4c0.2,0.6,0.7,1,1.3,1c0.2,0,0.3,0.1,0.4,0.3l0.6,2.2L25,20.2h-3.3c-0.3,0-0.5,0.1-0.7,0.2
		c0,0,0,0,0,0c-0.1,0.1-0.1,0.1-0.1,0.2c-0.1,0.1-0.2,0.2-0.2,0.4l-2.1,5.5H1.6c-0.4,0-0.6,0.6-0.3,0.8l5.6,3c0.9,0,1.8,0.2,2.7,0.6
		c1.9,0.8,3.8,0.8,5.7,0c1.9-0.8,3.9-0.8,5.8,0c1.9,0.8,3.8,0.8,5.7,0c1.9-0.8,3.9-0.8,5.8,0c1.9,0.8,3.8,0.8,5.7,0
		c1.1-0.5,2.2-0.6,3.3-0.6l5.2-3C47.2,27.1,47,26.6,46.5,26.6z M22.5,26.6l1.6-4.1c0-0.1,0-0.1,0.1-0.2h1.2c0.2,0,0.4-0.1,0.6-0.2
		l1.8-1.2l0.5,1.9h-3.7l-0.8,2h5l0.5,1.8H22.5z"/>
	<path d="M44.1,33.1c-1.9-0.8-3.9-0.8-5.8,0c-1.9,0.8-3.8,0.8-5.7,0s-3.9-0.8-5.8,0s-3.8,0.8-5.7,0s-3.9-0.8-5.8,0s-3.8,0.8-5.7,0
		s-3.9-0.8-5.8,0c-0.9,0.3-1.9,0.4-2.8,0.5c0,1.3,0,2.6,0,3.9c0.9-0.2,1.9-0.2,2.8-0.5c1.9-0.8,3.9-0.8,5.8,0s3.8,0.8,5.7,0
		s3.9-0.8,5.8,0s3.8,0.8,5.7,0s3.9-0.8,5.8,0s3.8,0.8,5.7,0s3.9-0.8,5.8,0c0.9,0.3,1.8,0.4,2.7,0.5c0-1.3,0-2.6,0-3.9
		C46,33.5,44.9,33.4,44.1,33.1z"/>
</g>
</svg>
