<?xml version="1.0" encoding="utf-8"?>
<!-- Generator: Adobe Illustrator 19.2.1, SVG Export Plug-In . SVG Version: 6.00 Build 0)  -->
<svg version="1.1" id="Layer_1" xmlns="http://www.w3.org/2000/svg" xmlns:xlink="http://www.w3.org/1999/xlink" x="0px" y="0px"
	 viewBox="0 0 48 48" style="enable-background:new 0 0 48 48;" xml:space="preserve">
<path d="M30.2,2L9.4,2C7,2,5,4,5,6.4v35.2C5,44,7,46,9.4,46h20.8c2.4,0,4.4-2,4.4-4.4V6.4L30.2,2z M30.2,41.6H9.4V6.4h20.8V41.6z"/>
<path d="M38.6,40c2.4,0,4.4-2,4.4-4.4V6.4C43,4,41,2,38.6,2h-8.4v4.4h8.4v29.2h-4V40H38.6z"/>
<rect x="0" y="6.4" width="5" height="4.4"/>
<rect x="34.6" y="6.4" width="13.4" height="4.4"/>
<rect x="13.2" y="6.4" width="4.4" height="35.2"/>
</svg>
