<?xml version="1.0" encoding="utf-8"?>
<!-- Generator: Adobe Illustrator 19.2.1, SVG Export Plug-In . SVG Version: 6.00 Build 0)  -->
<svg version="1.1" id="Layer_1" xmlns="http://www.w3.org/2000/svg" xmlns:xlink="http://www.w3.org/1999/xlink" x="0px" y="0px"
	 viewBox="0 0 256 96" style="enable-background:new 0 0 256 96;" xml:space="preserve">
<style type="text/css">
	.st0{fill:#52D844;}
	.st1{fill:#FF4858;}
	.st2{fill:#FFFFFF;}
	.st3{fill:#4189DD;}
</style>
<g>
	<g id="ZI4q7W.tif_5_">
		<g>
			<g>
				<path class="st0" d="M109.4,65c0.1-1.3,0.2-4.1,0.3-5.4c0.1-0.9,0.1-1.7,0.2-2.6c0.1-0.8,0.1-1.5,0.2-2.3c0-0.4,0-0.8,0.1-1.2
					c0.1-1,0.3-2,0.4-3c0.1-0.6,0.2-1.1,0.2-1.7c0.1-0.6,0.2-1.3,0.3-1.9c0.1-0.6,0.2-1.2,0.3-1.7c0.1-0.6,0.2-1.3,0.4-1.9
					c0.1-0.4,0.2-0.8,0.3-1.2c0.1-0.4,0.2-0.9,0.3-1.3c0.1-0.4,0.2-0.8,0.3-1.2c0.2-0.7,0.4-1.3,0.5-2c0.2-0.9,0.5-1.7,0.7-2.6
					c0.1-0.3,0.2-0.5,0.2-0.8c0.1-0.3,0.2-0.7,0.3-1c0.2-0.5,0.3-1.1,0.5-1.6c0.2-0.5,0.4-1,0.5-1.6c0.2-0.4,0.3-0.9,0.5-1.3
					c0.2-0.5,0.4-0.9,0.5-1.3c0.2-0.6,0.4-1.1,0.7-1.7c0.2-0.5,0.5-1.1,0.7-1.6c0.3-0.6,0.6-1.3,0.9-1.9c0.4-0.7,0.8-1.5,1.2-2.2
					c0.4-0.8,0.9-1.5,1.3-2.3c0.4-0.6,0.8-1.2,1.2-1.8c0.2-0.3,0.4-0.6,0.7-1c0.1,0.1,0.1,0.2,0.2,0.3c0.1,0.2,0.1,0.4,0.2,0.6
					c0.3,0.7,0.6,1.5,0.4,2.3c0,0.1,0.1,0.3,0.2,0.4c0.3,0,0.6,0,0.8,0c0.4-0.1,0.5-0.5,0.7-0.9c0.1-0.3,0.3-0.7,0.5-0.9
					c0.3-0.3,1-0.3,1.1,0.1c0.2,0.7,0.4,1.5,0.6,2.2c0.2,0.8,0.4,1.5,0.7,2.3c0.3,0.7,0.6,1.4,1,2.1c0.4,0.9,1.1,1.6,1.9,2.1
					c0.2,0.1,0.4,0.1,0.4-0.2c0-0.5,0-1,0-1.5c0-0.3,0-0.6-0.1-0.9c-0.1-0.5,0-1,0.1-1.4c0.1-0.2,0.3-0.3,0.5-0.4
					c0,0,0.2,0.2,0.3,0.3c0.3,0.7,0.5,1.4,0.6,2.2c0.2,1.1,0.3,2.2,0.6,3.3c0.2,0.5,0.4,1,0.9,1.4c0.5,0.5,1.2,0.6,1.9,0.6
					c0.3,0,0.4,0,0.3-0.4c-0.1-0.7-0.3-1.4-0.5-2.1c-0.1-0.2-0.1-0.5-0.2-0.7c-0.1-0.4-0.2-0.8-0.3-1.3c0-0.3,0-0.5,0-0.8
					c0-0.2,0.2-0.3,0.3-0.5c0.1,0.1,0.2,0.2,0.4,0.3c0.1,0.1,0.1,0.1,0.1,0.2c0.6,1.1,1.2,2.2,1.8,3.3c0.4,0.9,0.9,1.7,1.5,2.5
					c0.5,0.7,1.1,1.2,1.9,1.5c0.6,0.2,1.1,0.4,1.7,0.5c0.4,0.1,0.5,0,0.5-0.4c0-0.3,0-0.5,0-0.8c-0.1-0.7-0.2-1.4-0.4-2.1
					c-0.1-0.6-0.3-1.2-0.5-1.8c-0.4-1-0.8-2-1.3-2.9c-0.6-1.1-1.4-2.2-2.2-3.1c-0.7-0.8-1.5-1.6-2.3-2.3c-1-1-2.2-1.8-3.4-2.6
					c-0.9-0.5-1.7-1-2.6-1.5c-0.5-0.3-0.9-0.5-1.4-0.7c-0.5-0.2-1-0.4-1.4-0.6c-0.4-0.2-0.9-0.4-1.3-0.5c-0.5-0.2-0.9-0.4-1.4-0.5
					c-0.5-0.2-1.1-0.3-1.6-0.5c-0.7-0.2-1.4-0.4-2-0.6c-0.4-0.1-0.8-0.2-1.1-0.3c-0.5-0.1-1-0.2-1.5-0.3c-0.6-0.1-1.2-0.2-1.8-0.3
					c-0.8-0.1-1.5-0.2-2.3-0.3c-0.9-0.1-1.9-0.2-2.8-0.2c-1.4,0-2.8,0-4.2,0.1c-0.8,0.1-1.7,0.1-2.5,0.2c-0.7,0.1-1.3,0.1-2,0.3
					c-0.8,0.1-1.5,0.3-2.3,0.5c-0.7,0.2-1.4,0.4-2.1,0.6c-0.8,0.3-1.5,0.5-2.3,0.8c-0.8,0.3-1.6,0.7-2.4,1.1c-1,0.6-2.1,1.3-3,2
					c-1.6,1.1-2.9,2.5-4.1,4.1c-0.3,0.4-0.6,0.9-0.9,1.3c0,0.1,0,0.2,0,0.4c0.6,0,1.2-0.1,1.8-0.1c0.9-0.1,1.8-0.2,2.7-0.3
					c0.9-0.1,1.8-0.4,2.6-0.5c1-0.1,1.9-0.2,2.9-0.3c0.2,0,0.4-0.1,0.4-0.3c0.2-0.7,0.5-1.5,0.8-2.2c0.3-0.9,0.8-1.8,1.7-2.3
					c0.3-0.2,0.7-0.4,1.1-0.4c-0.1,0.3-0.2,0.5-0.3,0.8c-0.3,0.9-0.6,1.8-0.8,2.7c-0.2,0.5-0.3,0.9-0.5,1.4c-0.1,0.2,0,0.4,0.2,0.3
					c0.5-0.1,1-0.2,1.5-0.3c0.7-0.2,1.2-0.8,1.6-1.4c0.2-0.4,0.4-0.9,0.6-1.4c0.3-0.6,0.5-1.3,0.8-1.9c0.2-0.4,0.5-0.8,0.8-1.1
					c0-0.1,0.2-0.1,0.2-0.1c0,0,0.1,0.1,0.1,0.2c0,0.2,0,0.5,0,0.7c0,0.9,0,1.7-0.5,2.5c0,0.1-0.1,0.2,0,0.2c0.1,0,0.2,0.1,0.2,0.1
					c0.6-0.1,1.1-0.3,1.6-0.7c0.7-0.6,1-1.4,1.5-2.1c0.4-0.6,0.7-1.2,1.4-1.5c0.1-0.1,0.2-0.1,0.3-0.1c0,0.1,0.1,0.2,0.1,0.4
					c0,0.3,0,0.5,0,0.8c0.1,0.6,0.5,0.7,1,0.4c0.7-0.5,1.3-1,2-1.4c0.6-0.3,1.2-0.5,1.8-0.7c0.5-0.2,1.1-0.3,1.7-0.3
					c0.7-0.1,1.3,0.1,2,0.4c0.1,0,0.1,0.1,0.2,0.2c-0.1,0-0.1,0.1-0.2,0.1c-0.3,0.1-0.6,0.2-0.9,0.3c-0.4,0.1-0.8,0.3-1.1,0.5
					c-0.6,0.3-1.2,0.6-1.9,1c-0.4,0.2-0.9,0.5-1.3,0.7c-0.5,0.3-1.1,0.5-1.7,0.7c-0.6,0.2-1.2,0.4-1.9,0.5c-0.4,0.1-0.5,0.2-0.4,0.6
					c0.1,0.4,0.3,0.7,0.6,0.9c0.2,0.1,0.4,0.3,0.6,0.5c-0.3,0.1-0.6,0.2-0.8,0.3c-0.7,0.3-1.4,0.6-2,1c-0.8,0.5-1.6,1-2.3,1.6
					c-1.2,0.9-2.1,2.2-2.8,3.5c-0.6,1.1-1.1,2.3-1.5,3.5c-0.3,0.8-0.6,1.7-0.8,2.5c-0.2,0.7-0.4,1.5-0.6,2.2
					c-0.2,0.6-0.3,1.3-0.5,1.9c-0.1,0.3-0.2,0.6-0.2,0.8c-0.2,0.6-0.4,1.2-0.5,1.8c-0.1,0.4-0.2,0.7-0.3,1.1
					c-0.1,0.4-0.2,0.7-0.3,1.1c-0.1,0.3,0,0.4,0.3,0.3c0.6-0.2,1.2-0.3,1.8-0.5c1.2-0.4,2.1-1,3-1.9c1.3-1.3,2.3-2.8,3.1-4.4
					c0.4-0.9,0.9-1.7,1.3-2.6c0.1-0.1,0.2-0.3,0.2-0.4c0,0,0.1,0,0.1,0c0,0.2-0.1,0.3-0.1,0.5c0,0.5-0.1,1-0.1,1.5
					c0,0.6,0.4,1.1,1,1.2c0.2,0,0.4,0,0.5-0.1c0.3-0.3,0.6-0.6,0.7-1c0.2-0.7,0.3-1.4,0.4-2c0.1-0.8,0.1-1.7,0.1-2.6
					c0-0.8,0.1-1.6,0.4-2.3c0-0.1,0.1-0.1,0.1-0.1c0.1,0,0.1,0.1,0.2,0.1c0,0.1,0.1,0.1,0.1,0.2c0.1,0.5,0.1,1.1,0.3,1.6
					c0.2,0.7,0.5,1.1,1.2,1.1c0.3,0,0.5-0.2,0.6-0.4c0.3-0.6,0.4-1.3,0.4-2c0-1.1,0-2.2,0.1-3.4c0-0.4,0.2-0.8,0.4-1.2
					c0.1-0.2,0.2-0.2,0.4,0c0.4,0.4,0.5,1,0.5,1.5c0.1,0.7,0.1,1.4,0.4,2.1c0,0,0,0.1,0,0.1c-0.1,0.2-0.2,0.3-0.2,0.5
					c-0.3,0.6-0.6,1.3-0.9,1.9c-0.2,0.5-0.5,1.1-0.7,1.7c-0.3,0.8-0.6,1.5-0.9,2.3c-0.2,0.7-0.5,1.3-0.7,2c-0.2,0.7-0.5,1.5-0.7,2.2
					c-0.2,0.8-0.5,1.6-0.7,2.4c-0.1,0.3-0.2,0.6-0.2,0.9c-0.2,0.6-0.4,1.2-0.5,1.9c-0.2,0.7-0.3,1.4-0.5,2.2c-0.1,0.3-0.1,0.7-0.2,1
					c-0.1,0.5-0.2,1-0.3,1.5c-0.1,0.5-0.2,1-0.3,1.5c-0.1,0.4-0.1,0.7-0.2,1.1c-0.1,0.7-0.3,1.4-0.4,2.1c-0.1,0.5-0.2,1.1-0.2,1.6
					c-0.1,0.8-0.3,1.6-0.4,2.5c-0.1,0.7-0.2,1.4-0.2,2.1c-0.1,0.9-0.2,1.7-0.3,2.6c-0.1,0.7-0.1,1.4-0.2,2.1
					c-0.1,0.8-0.3,3.6-0.4,4.5c0,0,1,0,1.9,0C108.2,64.7,109.4,65,109.4,65z"/>
				<path class="st0" d="M124.4,65.5c0.2-0.5,0.3-1.1,0.5-1.6c0.2-0.5,0.3-1.1,0.5-1.6c0.2-0.5,0.4-1,0.5-1.5
					c0.2-0.5,0.3-0.9,0.5-1.4c0.2-0.6,0.5-1.2,0.7-1.8c0.3-0.7,0.6-1.4,0.9-2.1c0.4-0.8,0.7-1.5,1.1-2.2c0.4-0.8,0.8-1.7,1.3-2.4
					c0.7-1.1,1.4-2.1,2.1-3.2c0.1-0.2,0.3-0.3,0.4-0.4c0,0,0,0,0.1,0c0,0.1,0,0.2,0,0.3c0,1.3,0,2.7,0,4c0,0.1,0,0.3,0,0.4
					c0.2,0.6,0.8,0.8,1.2,0.4c0.2-0.2,0.4-0.4,0.6-0.5c0.2-0.1,0.3-0.4,0.5-0.2c0.1,0.1,0.2,0.3,0.2,0.5c0,0.7,0,1.4,0,2.1
					c0,0.8,0,1.7,0,2.5c0,0.2,0.1,0.4,0.3,0.5c0.8,0.2,1.3-0.2,1.5-0.9c0.1-0.4,0.2-0.8,0.6-1c0.2-0.1,0.5-0.2,0.6-0.1
					c-0.1,0.5-0.3,1-0.4,1.4c-0.1,0.7,0,1.3,0,2c0,0.4,0,0.4,0.4,0.4c0.6,0,1.1-0.2,1.7,0c0.4,0.1,0.7,0.2,1,0.5
					c0.4,0.4,0.7,0.9,1.1,1.4c0.3,0.4,0.7,0.9,1,1.3c0.1,0.2,0.3,0.2,0.5,0c0.1-0.2,0.3-0.3,0.3-0.5c0.1-0.2,0.1-0.4,0.2-0.6
					c0.2-0.7,0.3-0.7,0.9-0.3c0,0,0.1,0.1,0.1,0.1c0.4,0.4,0.8,0.8,1.2,1.2c0.5,0.5,1.1,0.8,1.7,0.9c0.3,0,0.4,0,0.3-0.4
					c-0.1-0.5-0.2-0.9-0.4-1.3c-0.3-1-0.7-1.9-1.1-2.8c-0.5-1-1-2-1.7-2.9c-0.8-1.2-1.7-2.4-2.7-3.6c-0.9-1.1-1.9-2.2-2.9-3.3
					c-0.9-1-1.8-1.9-2.7-2.9c-0.2-0.2-0.4-0.5-0.6-0.7c-0.1-0.2-0.1-0.3,0.1-0.3c0.5,0,0.9,0,1.4,0.1c1.1,0.2,2.1,0.7,3.1,1.3
					c0.9,0.5,1.7,1.2,2.7,1.4c0.4,0.1,0.9,0.2,1.3,0c0.2-0.1,0.2-0.2,0.1-0.4c-0.3-0.3-0.6-0.6-0.8-0.9c-0.3-0.4-0.6-0.7-0.8-1.2
					c-0.1-0.3,0-0.5,0.2-0.6c0.2-0.2,0.3-0.2,0.6-0.1c0.4,0.1,0.7,0.4,1,0.8c0.4,0.6,0.7,1.2,1,1.7c0.4,0.7,1,1.2,2,1.2
					c0.3,0,0.3-0.1,0.3-0.3c0-0.8-0.3-1.6-0.6-2.4c-0.5-1.3-1.3-2.3-2.4-3.1c-1-0.7-2-1.2-3.2-1.4c-0.9-0.2-1.7-0.3-2.6-0.3
					c-0.4,0-0.8,0-1.2,0.1c-0.6,0.1-1.3,0.2-1.9,0.3c-0.7,0.2-1.3,0.5-1.9,0.7c-0.8,0.3-1.5,0.8-2.1,1.3c-0.4,0.4-0.4,0.4-0.8,0
					c-0.5-0.5-1-0.9-1.6-1.1c-0.6-0.3-1.3-0.5-1.9-0.7c-0.8-0.2-1.7-0.3-2.6-0.2c-0.6,0-1.2,0.2-1.8,0.5c-0.7,0.4-1.2,1-1.5,1.8
					c-0.1,0.3,0,0.4,0.3,0.4c0.3,0,0.7,0,1,0c0.8,0,1.7,0,2.5,0.2c0.5,0.1,0.9,0.4,1.2,0.8c0,0,0,0.2,0,0.2
					c-0.2,0.1-0.5,0.1-0.7,0.2c-0.4,0.1-0.7,0.2-1.1,0.3c-0.5,0.2-1.1,0.3-1.6,0.5c-0.7,0.2-1.3,0.4-2,0.7c-0.8,0.3-1.6,0.7-2.4,1.1
					c-0.8,0.4-1.5,0.9-2.2,1.4c-0.9,0.6-1.7,1.4-2.4,2.2c-0.3,0.4-0.7,0.8-1,1.3c-0.5,0.8-1,1.6-1.3,2.5c-0.2,0.6-0.4,1.3-0.6,1.9
					c-0.1,0.2,0,0.2,0.2,0.2c0.1,0,0.2-0.1,0.3-0.1c0.3-0.1,0.6-0.2,0.9-0.3c0.2,0,0.4,0,0.6,0.1c0.4,0.2,0.6,0.6,0.8,0.9
					c0.2,0.2,0.2,0.5,0.6,0.7c0.8-1.8,1.4-3.7,3.1-5c0,0.1,0.1,0.2,0.1,0.3c0,0.5-0.1,0.9-0.1,1.4c0,0.4,0,0.7,0,1.1
					c0,0.2,0.2,0.3,0.4,0.4c0.2,0,0.4,0,0.5-0.2c0.3-0.6,0.6-1.3,0.9-1.9c0.3-0.6,0.5-1.2,0.9-1.8c0.2-0.4,0.6-0.7,0.9-1
					c0.1-0.1,0.2-0.1,0.3-0.1c0.1,0,0.1,0.2,0.1,0.3c0,0.2-0.1,0.4-0.2,0.5c-0.1,0.2-0.3,0.4-0.4,0.6c-0.1,0.2-0.3,0.4-0.2,0.6
					c0.2,0.4,0.8,0.5,1.1,0.2c0.5-0.7,1-1.4,1.5-2.1c0.5-0.7,0.9-1.3,1.4-2c0.4-0.6,1-1,1.7-1.2c0.3-0.1,0.7-0.2,1-0.3
					c0.1,0,0.2,0,0.2,0c0,0,0,0.1,0,0.2c0,0.1-0.1,0.2-0.1,0.2c-0.3,0.5-0.7,1-1,1.5c-0.5,0.7-0.9,1.5-1.3,2.2
					c-0.3,0.5-0.6,1.1-0.9,1.6c-0.2,0.5-0.5,1-0.7,1.4c-0.3,0.5-0.5,1.1-0.8,1.6c-0.2,0.4-0.4,0.8-0.5,1.2c-0.2,0.4-0.3,0.8-0.5,1.2
					c-0.2,0.5-0.3,0.9-0.5,1.4c-0.2,0.5-0.4,1-0.5,1.6c-0.2,0.5-0.5,1.6-0.7,2.1c0,0,0.8,0.1,1.5,0.3
					C123.6,65.1,124.4,65.5,124.4,65.5z"/>
				<path class="st0" d="M115.8,2.7c0.1,0,0.2,0.1,0.4,0.1c1.2,0.2,2.2,0.7,3.1,1.4c0.9,0.7,1.7,1.5,2.3,2.5c0.3,0.5,0.7,1,1,1.5
					c0.2,0.3,0.1,0.4-0.2,0.4c-0.8,0-1.5,0.1-2.3-0.2c-0.6-0.2-1.2-0.3-1.8-0.5c-0.8-0.3-1.6-0.7-2.3-1.2c-0.8-0.6-1.5-1.2-1.9-2.1
					c-0.3-0.6-0.6-1.2-0.5-1.9C114.3,2.7,115,2.7,115.8,2.7z"/>
			</g>
		</g>
	</g>
	<g>
		<g>
			<path class="st1" d="M92.5,58c0.9,0.1,1.8,0.2,2.7,0.3c0.9,0.1,1.7,0.2,2.5,0.2c0.2,0,0.4-0.1,0.7-0.2c0.2-0.1,0.4-0.3,0.5-0.4
				c0.2-0.2,0.3-0.4,0.4-0.6c0.1-0.2,0.1-0.4,0.1-0.7c0-0.3-0.1-0.6-0.3-0.8c-0.2-0.2-0.6-0.4-1-0.5c-2.1-0.4-4.2-0.6-6.2-0.7
				c-2-0.1-3.9-0.2-5.7-0.2c-1.3,0-2.6,0-3.9,0.1c-1.3,0.1-2.4,0.2-3.5,0.3c-1.1,0.2-2.1,0.4-3,0.7c-0.9,0.3-1.7,0.7-2.4,1.1
				c-0.7,0.5-1.2,1-1.5,1.7c-0.4,0.6-0.5,1.4-0.5,2.3c0,0.4,0.1,0.7,0.3,1c0.1,0.2,0.4,0.5,0.7,0.7c0.3,0.2,0.8,0.3,1.4,0.3
				s1-0.1,1.4-0.3c0.3-0.2,0.5-0.4,0.7-0.7c0.1-0.3,0.2-0.5,0.3-0.7c0-0.2,0-0.3,0-0.4c0-0.4,0.1-0.8,0.3-1.1
				c0.2-0.3,0.5-0.6,0.9-0.8s0.8-0.4,1.3-0.5c0.5-0.1,1-0.3,1.5-0.3c0.5-0.1,1.1-0.2,1.6-0.2c0.6-0.1,1.1-0.1,1.7-0.1
				c-0.6,2-1.2,3.9-1.8,5.5c-0.5,1.7-1,3.1-1.5,4.5c-0.5,1.3-0.9,2.5-1.3,3.7c-0.4,1.1-0.7,2.2-0.9,3.2c-0.2,1-0.5,2-0.7,2.9
				c-0.2,0.9-0.5,1.8-0.7,2.7c-0.1,0.2-0.1,0.5-0.1,0.7c0,0.6,0.2,1.1,0.6,1.4c0.4,0.3,0.9,0.4,1.5,0.4c0.2,0,0.4-0.1,0.7-0.2
				c0.2-0.1,0.5-0.3,0.7-0.5s0.4-0.5,0.6-0.8c0.2-0.3,0.3-0.6,0.4-1c0.2-0.8,0.4-1.7,0.7-2.8c0.3-1.1,0.6-2.2,0.9-3.5
				c0.3-1.3,0.7-2.6,1-4c0.4-1.4,0.7-2.8,1.1-4.2c0.4-1.4,0.7-2.7,1.1-4.1c0.3-1.3,0.6-2.7,0.8-4c1.1,0.1,2.1,0.2,3.1,0.3
				C90.6,57.8,91.6,57.9,92.5,58z"/>
		</g>
		<g>
			<path class="st1" d="M132,64c0.5,0,1-0.1,1.4-0.2c0.4-0.2,0.7-0.4,0.9-0.6c0.2-0.3,0.4-0.6,0.5-0.9c0.1-0.3,0.2-0.7,0.2-1
				c0-0.4-0.1-0.7-0.2-1c-0.1-0.3-0.3-0.5-0.6-0.7c-0.2-0.2-0.5-0.3-0.8-0.4c-0.3-0.1-0.7-0.1-1-0.1c-0.6,0-1.1,0.1-1.5,0.3
				c-0.4,0.2-0.7,0.4-0.9,0.7c-0.2,0.3-0.4,0.6-0.5,0.9c-0.1,0.3-0.2,0.6-0.2,0.8c0,0.7,0.2,1.3,0.7,1.7C130.4,63.8,131.1,64,132,64
				z"/>
		</g>
		<g>
			<path class="st1" d="M165.8,74.6c0.1-0.2,0.1-0.4,0.2-0.6c0.1-0.2,0.1-0.4,0.2-0.5c0.1-0.2,0.1-0.3,0.2-0.4
				c0.5-0.9,1-1.9,1.6-2.9c0.6-1,1.1-2,1.7-3c0.6-1,1.1-2,1.6-3.1c0.5-1,1-2.1,1.4-3.1c0.4-1,0.7-2,0.9-3.1c0.2-1,0.3-2,0.3-3
				c0-0.4,0-0.8-0.1-1.2c-0.1-0.4-0.2-0.7-0.4-1c-0.2-0.3-0.4-0.5-0.7-0.7c-0.3-0.2-0.7-0.3-1.2-0.3c-0.7,0-1.3,0.2-1.9,0.6
				c-0.6,0.4-1.2,0.9-1.8,1.6c-0.6,0.7-1.1,1.4-1.7,2.3c-0.5,0.9-1,1.8-1.5,2.9c-0.5,1-0.9,2.4-1.4,4.1c-0.5,1.7-0.7,2.5-0.7,2.5
				c0,0-0.1,0.8-0.4,2.5s-0.4,3.1-0.4,4.1c0,0.9,0.1,1.8,0.2,2.7c-0.2,0.3-0.5,0.6-0.7,0.8c-0.2,0.2-0.4,0.5-0.7,0.7
				c-0.2,0.2-0.5,0.4-0.7,0.6c-0.2,0.2-0.5,0.3-0.7,0.4c-0.2,0.1-0.5,0.2-0.7,0.2c-0.3,0-0.5-0.1-0.6-0.4c-0.1-0.3-0.1-0.6-0.1-1.1
				c0-0.6,0.1-1.2,0.3-2c0.2-0.8,0.3-1.5,0.5-2.2s0.3-1.3,0.4-1.9c0.1-0.6,0.2-1.2,0.2-1.6c0-0.3,0-0.6-0.1-0.8
				c-0.1-0.2-0.1-0.3-0.2-0.4c-0.1-0.1-0.2-0.2-0.4-0.2c-0.1,0-0.3,0-0.4,0c-0.1,0-0.2,0-0.4,0c-0.1,0-0.2,0-0.4,0
				c-0.1,0-0.3,0-0.4,0c-0.1,0-0.3,0-0.4-0.1c-0.1-0.1-0.2-0.1-0.3-0.3c-0.1-0.1-0.2-0.2-0.3-0.4c-0.1-0.1-0.2-0.2-0.3-0.3
				c-0.1-0.1-0.3-0.1-0.6-0.1c-0.7,0-1.4,0.2-2.1,0.5c-0.7,0.3-1.4,0.7-2,1.2c-0.6,0.5-1.2,1.1-1.7,1.8c-0.5,0.7-1,1.5-1.5,2.5
				c-0.5,0.9-0.8,1.8-1,2.6c0,0.1-0.1,0.2-0.1,0.4c-0.1,0.1-0.2,0.2-0.3,0.3c-0.5,0.6-1.1,1.1-1.7,1.5c-0.6,0.5-1.2,0.9-1.8,1.2
				c-0.6,0.3-1.1,0.5-1.6,0.5c-0.5,0-0.9-0.1-1.2-0.3c-0.3-0.2-0.6-0.5-0.8-0.8c-0.2-0.3-0.3-0.7-0.4-1.1c-0.1-0.4-0.1-0.8-0.1-1.2
				c0-0.2,0-0.6,0-0.9c0-0.4,0.1-0.8,0.2-1.2c0.1-0.4,0.2-0.9,0.4-1.5c0.2-0.6,0.4-1.1,0.6-1.4c0.2-0.3,0.5-0.6,0.8-0.8
				c0.3-0.2,0.7-0.3,1.1-0.3c0.2,0,0.3,0.1,0.3,0.2c0.1,0.2,0.1,0.4,0.1,0.6c0,0.3,0,0.5,0,0.6c-0.2,0.6-0.2,1-0.3,1.1
				c-0.1,0.3,0,0.7,0.2,1.1c0.2,0.3,0.5,0.4,1,0.4c0.3,0,0.7-0.1,0.9-0.2c0.3-0.2,0.6-0.5,0.8-0.9c0.3-0.5,0.5-0.9,0.6-1.2
				c0.1-0.3,0.2-0.7,0.2-1c0-0.5-0.1-1-0.3-1.4c-0.2-0.4-0.5-0.8-0.9-1.1c-0.4-0.3-0.8-0.6-1.4-0.8c-0.5-0.2-1.1-0.3-1.7-0.3
				c-0.7,0-1.3,0.1-1.9,0.4c-0.6,0.3-1.1,0.6-1.6,1c-0.5,0.4-0.9,0.9-1.2,1.5c-0.4,0.6-0.7,1.2-0.9,1.8c-0.2,0.6-0.5,1.4-0.7,2.2
				c-0.2,0.8-0.3,1.6-0.3,2.2c0,0.5,0.1,1.1,0.2,1.6c-0.2,0.2-0.4,0.4-0.6,0.5c-0.5,0.4-0.9,0.7-1.4,0.9c-0.5,0.3-0.9,0.4-1.2,0.4
				c-0.3,0-0.5-0.1-0.6-0.4c-0.1-0.3-0.2-0.6-0.2-1.1c0-0.5,0.1-1,0.2-1.6c0.1-0.6,0.3-1.2,0.4-1.8c0.1-0.6,0.3-1.3,0.5-2.1
				c0.3-0.8,0.5-1.5,0.6-2.1c0.1-0.5,0.3-1,0.4-1.4s0.2-0.7,0.2-1c0-0.3-0.1-0.5-0.2-0.6c-0.2-0.2-0.4-0.2-0.9-0.2
				c-0.2,0-0.5,0-0.8,0.1c-0.3,0.1-0.6,0.1-0.8,0.3s-0.5,0.3-0.7,0.5c-0.2,0.2-0.4,0.4-0.4,0.7c-0.1,0.4-0.3,1.2-0.7,2.4
				c-0.4,1.5-0.7,2.5-0.8,2.9c-0.1,0.2-0.3,1.2-0.6,3c0,0.2-0.1,0.3-0.1,0.5c-0.4,0.3-0.9,0.6-1.3,0.8c-0.7,0.3-1.5,0.6-2.3,0.8
				c-0.9,0.2-1.8,0.3-2.8,0.3l-0.1-0.3c0.9-0.4,1.7-0.9,2.4-1.4c0.7-0.5,1.3-1,1.8-1.6c0.5-0.6,0.9-1.3,1.2-2.1
				c0.2-0.5,0.3-1.3,0.3-2.2c0-0.9-0.1-1.6-0.4-2.2c-0.2-0.6-0.6-1.1-1-1.5c-0.4-0.4-0.9-0.7-1.4-0.8c-0.5-0.2-1.1-0.3-1.8-0.3
				c-0.9,0-1.6,0.2-2.2,0.5c-0.6,0.3-1.1,0.7-1.6,1.2c-0.4,0.5-0.9,1.2-1.2,2.1c-0.3,0.6-0.5,1.2-0.7,1.8c-0.5-0.6-1-1.2-1.5-1.8
				c-0.6-0.8-1.3-1.4-2.1-1.9c-0.8-0.5-1.6-0.9-2.4-1.2c-0.9-0.3-1.8-0.5-2.8-0.5c-1.1,0-2.2,0.2-3.1,0.6c-0.9,0.4-1.7,1-2.3,1.7
				c-0.6,0.7-1.1,1.6-1.5,2.6c-0.2,0.6-0.4,1.3-0.4,2.1c-0.4,0.2-0.8,0.2-1.3,0.2c-0.2,0-0.3,0-0.5-0.1c-0.2-0.1-0.3-0.2-0.4-0.3
				c-0.1-0.2-0.2-0.3-0.3-0.6c-0.1-0.2-0.1-0.6-0.1-0.9c0-0.2,0-0.5,0.1-0.8c0.1-0.3,0.1-0.7,0.2-1.2c0.1-0.5,0.2-0.9,0.2-1.2
				c0.1-0.3,0.1-0.6,0.1-0.7c0-0.2,0-0.4-0.1-0.6c-0.1-0.2-0.2-0.3-0.3-0.5c-0.1-0.1-0.3-0.2-0.5-0.3c-0.2-0.1-0.4-0.1-0.6-0.1
				c-0.6,0-1.1,0.2-1.5,0.5c-0.4,0.3-0.8,0.7-1.2,1.1c-0.3,0.4-0.7,1-1,1.7c-0.3,0.7-0.6,1.2-0.8,1.6h-0.2c0-0.5,0-1.1,0-1.8
				c0.1-0.7,0.1-1.2,0.1-1.6c0-0.3,0-0.6,0-0.8c0-0.2-0.1-0.3-0.1-0.4c-0.1-0.1-0.2-0.2-0.3-0.2c-0.2,0-0.4,0-0.6,0
				c-0.2,0-0.4,0-0.6,0c-0.2,0-0.3,0.1-0.4,0.2c-0.1,0.1-0.2,0.2-0.3,0.3c-0.1,0.1-0.2,0.3-0.2,0.5c-0.1,0.3-0.3,0.8-0.4,1.3
				c-0.1,0.5-0.3,1.2-0.5,2c-0.2,0.8-0.3,1.5-0.5,2.2c-0.1,0.7-0.2,1.4-0.3,2.1c-0.1,0.7-0.2,1.3-0.2,1.9c-0.1,0.6-0.1,1.1-0.1,1.6
				c0,0.4,0,0.8,0.1,1.2c0,0.4,0.1,0.7,0.3,1c0.1,0.3,0.3,0.5,0.6,0.7c0.3,0.2,0.6,0.3,1,0.3c0.2,0,0.4,0,0.5-0.1
				c0.2-0.1,0.3-0.2,0.4-0.3c0.1-0.2,0.3-0.4,0.4-0.6c0.1-0.3,0.3-0.6,0.4-1l2.8-7.7h0.2c0.1,0.7,0.2,1.3,0.3,1.9
				c0.1,0.6,0.3,1.2,0.6,1.7c0.3,0.5,0.7,0.9,1.1,1.2c0.5,0.3,1.1,0.5,1.9,0.5c0.4,0,0.9-0.1,1.3-0.2c0.2-0.1,0.4-0.1,0.6-0.2
				c0,0.2,0.1,0.4,0.1,0.5c0.2,0.8,0.5,1.5,0.9,2.2c0.4,0.6,0.9,1.2,1.6,1.6c0.6,0.4,1.4,0.6,2.3,0.6c0.6,0,1.2-0.1,1.8-0.3
				c0.6-0.2,1.1-0.5,1.5-0.9c0.5-0.4,0.9-0.8,1.3-1.3s0.7-1.1,0.9-1.6c0.3-0.6,0.4-1.2,0.6-1.8c0.1-0.6,0.2-1.2,0.2-1.8
				c0-0.8-0.1-1.6-0.2-2.3c-0.2-0.7-0.4-1.3-0.7-1.9l0.1-0.2c0.4,0.2,0.8,0.6,1.3,0.9s1,0.8,1.6,1.3c0.5,0.5,1,1,1.5,1.4
				c0.2,0.2,0.5,0.4,0.6,0.6c-0.1,0.4-0.1,0.7-0.2,1.1c-0.1,0.8-0.2,1.6-0.4,2.4c-0.9,1.4-1.7,2.8-2.4,4.2c-0.3,0.6-0.6,1.2-0.9,1.8
				c-0.3,0.6-0.5,1.2-0.8,1.8c-0.2,0.6-0.4,1.2-0.5,1.7c-0.1,0.5-0.2,1-0.2,1.5c0,0.7,0,1.4,0.1,2.1c0.1,0.7,0.3,1.2,0.5,1.7
				c0.2,0.5,0.5,0.9,0.9,1.2c0.4,0.3,0.9,0.4,1.5,0.4c0.8,0,1.5-0.3,2.2-0.9c0.7-0.6,1.3-1.4,1.9-2.5c0.5-1.1,1-2.4,1.3-4
				c0.3-1.5,0.5-3.3,0.5-5.2v-0.3c0.9,0.1,1.5,0.2,2,0.3c0.5,0.1,0.9,0.2,1.2,0.2c0.3,0.1,0.5,0.1,0.6,0.1c0.1,0,0.2,0,0.3,0
				c0.6,0,1.2-0.1,1.8-0.3c0.6-0.2,1.2-0.4,1.8-0.7c0.2-0.1,0.4-0.3,0.7-0.4c0.1,0.2,0.2,0.4,0.3,0.6c0.2,0.3,0.5,0.5,0.9,0.6
				c0.4,0.2,0.8,0.2,1.4,0.2c0.6,0,1.2-0.1,1.9-0.3c0.7-0.2,1.3-0.5,2-0.8c0.6-0.3,1.2-0.7,1.8-1.1c0.1-0.1,0.3-0.2,0.4-0.3
				c0.1,0.2,0.3,0.4,0.4,0.6c0.5,0.6,1.1,1.1,1.8,1.4c0.7,0.4,1.6,0.5,2.5,0.5c0.5,0,1.1-0.1,1.6-0.3c0.5-0.2,1-0.4,1.5-0.7
				c0.5-0.3,1-0.6,1.4-0.9c0.5-0.4,0.9-0.7,1.2-1.1c0.1-0.1,0.1-0.1,0.2-0.2c0,0.2,0.1,0.4,0.2,0.6c0.2,0.5,0.5,1,0.9,1.4
				c0.4,0.4,0.8,0.7,1.2,0.9c0.5,0.2,1,0.3,1.5,0.3c0.5,0,0.9-0.1,1.4-0.2c0.5-0.2,0.9-0.4,1.4-0.6c0.4-0.2,0.8-0.5,1.2-0.8
				c0.4-0.3,0.7-0.6,0.9-0.9c0.3,0.8,0.7,1.5,1.2,1.9c0.5,0.4,1,0.7,1.7,0.7c0.6,0,1.1-0.1,1.7-0.4c0.6-0.3,1.1-0.6,1.6-1
				c0.5-0.4,0.9-0.8,1.3-1.3c0.1-0.1,0.2-0.2,0.2-0.3c0,0.1,0.1,0.2,0.1,0.3c0.4,0.8,0.8,1.5,1.3,1.9c0.5,0.5,1,0.7,1.6,0.7
				c0.4,0,0.8,0,1.2-0.1c0.4-0.1,0.8-0.2,1.3-0.4c0.4-0.2,0.9-0.3,1.3-0.5c0.4-0.2,0.9-0.4,1.3-0.6c0.9-0.5,1.9-1.1,2.8-1.7
				l-1.4-3.3c-0.7,0.6-1.4,1.1-2.1,1.5c-0.3,0.2-0.6,0.4-0.9,0.6c-0.3,0.2-0.6,0.3-0.9,0.5c-0.3,0.1-0.6,0.3-0.8,0.3
				c-0.3,0.1-0.5,0.1-0.7,0.1c-0.1,0-0.2-0.1-0.3-0.2c-0.1-0.1-0.2-0.3-0.3-0.5c-0.1-0.2-0.2-0.4-0.2-0.7c-0.1-0.3-0.1-0.5-0.1-0.8
				v-0.2C165.7,75,165.7,74.8,165.8,74.6z M107.3,74.4c-0.2,0.8-0.3,1.4-0.6,2c-0.2,0.5-0.5,1-0.9,1.4c-0.3,0.4-0.7,0.5-1,0.5
				c-0.4,0-0.8-0.1-1-0.3c-0.3-0.2-0.5-0.4-0.7-0.7c-0.2-0.3-0.3-0.6-0.4-1c-0.1-0.4-0.1-0.8-0.1-1.2c0-0.9,0.1-1.6,0.2-2.3
				c0.2-0.7,0.4-1.3,0.7-1.9c0.3-0.6,0.6-1,1-1.4c0.4-0.4,0.8-0.5,1.2-0.5c0.3,0,0.6,0.1,0.8,0.3c0.2,0.2,0.4,0.4,0.6,0.7
				c0.1,0.3,0.3,0.7,0.3,1.1c0.1,0.4,0.1,0.9,0.1,1.3C107.5,72.9,107.5,73.6,107.3,74.4z M114.6,81.6c0,0.3,0,0.6,0,1
				c0,0.4,0,0.9-0.1,1.4c0,0.3,0,0.7,0,1.1c0,0.4,0,0.8,0,1.2c0,0.4,0,0.8-0.1,1.2c0,0.4-0.1,0.8-0.2,1.1c-0.1,0.3-0.2,0.6-0.3,0.8
				c-0.1,0.2-0.3,0.3-0.4,0.3c-0.2,0-0.4-0.1-0.5-0.2c-0.1-0.1-0.2-0.3-0.3-0.5c-0.1-0.2-0.1-0.4-0.2-0.6s-0.1-0.3-0.1-0.4
				c0-0.1,0-0.4,0.1-0.7c0.1-0.3,0.1-0.7,0.2-1.1c0.1-0.4,0.2-0.9,0.3-1.4c0.1-0.5,0.3-1,0.5-1.5c0.2-0.5,0.3-1,0.5-1.4
				c0.2-0.4,0.4-0.8,0.6-1.2C114.7,81.1,114.7,81.3,114.6,81.6z M118,76.7c0-0.6,0-1.2,0.1-1.8c0-0.6,0.2-1.2,0.3-2
				c0.2-0.7,0.4-1.3,0.5-1.8c0.1-0.5,0.3-0.9,0.5-1.2c0.2-0.4,0.5-0.6,0.8-0.8c0.3-0.2,0.6-0.3,1-0.3c0.3,0,0.6,0.1,0.8,0.3
				c0.2,0.2,0.3,0.4,0.4,0.7c0.1,0.3,0.1,0.5,0.1,0.8c0,0.3,0,0.6-0.1,0.8c-0.1,0.4-0.3,1-0.7,1.8c-0.5,0.9-0.8,1.4-1,1.4
				c-0.3,0.4-0.7,0.8-1.1,1.2C119.2,76.1,118.6,76.4,118,76.7z M153.8,73.8c0,0.3-0.1,0.7-0.3,1.3c-0.1,0.5-0.3,1-0.6,1.5
				c-0.2,0.5-0.5,0.9-0.8,1.2c-0.3,0.3-0.7,0.5-1,0.5c-0.2,0-0.4-0.1-0.6-0.2c-0.2-0.1-0.3-0.3-0.4-0.5c-0.1-0.2-0.2-0.4-0.2-0.7
				c0-0.3-0.1-0.5-0.1-0.8c0-0.5,0.1-0.9,0.2-1.4c0.1-0.5,0.3-1.1,0.6-1.8c0.3-0.7,0.6-1.2,0.9-1.7c0.3-0.5,0.6-0.9,1-1.2
				s0.7-0.6,1.1-0.9c0.4-0.2,0.8-0.3,1.2-0.3L153.8,73.8z M165.4,68.9c0.1-1.1,0.2-2.3,0.5-3.7c0.3-1.4,0.4-2.1,0.4-2.1
				c0,0,0.2-0.8,0.7-2.3c0.5-1.5,0.8-2.6,1.2-3.3c0.3-0.7,0.7-1.2,1-1.6c0.3-0.4,0.6-0.6,0.9-0.6c0.1,0,0.1,0.1,0.1,0.3
				c0,0.2,0,0.5,0,0.8c-0.1,0.9-0.3,2-0.7,3.1c-0.3,1.1-0.7,2.2-1.2,3.3c-0.5,1.1-1,2.2-1.5,3.2C166.4,67.1,165.9,68.1,165.4,68.9z"
				/>
		</g>
	</g>
	<g>
		<path class="st3" d="M4,67.6c-0.1-0.2,0-0.4,0.2-0.4h1.5c0.1,0,0.2,0.1,0.2,0.2l2.7,6.1h0.1l2.7-6.1c0-0.1,0.1-0.2,0.2-0.2h1.5
			c0.2,0,0.3,0.2,0.2,0.4l-4.4,9.6c0,0.1-0.1,0.2-0.2,0.2H8.7c-0.1,0-0.2-0.1-0.2-0.2L4,67.6z"/>
		<path class="st3" d="M20.5,67.5c0-0.1,0.1-0.3,0.3-0.3h1.3c0.1,0,0.3,0.1,0.3,0.3v9.4c0,0.1-0.1,0.3-0.3,0.3h-1.3
			c-0.1,0-0.3-0.1-0.3-0.3V67.5z"/>
		<path class="st3" d="M30.6,67.5c0-0.1,0.1-0.3,0.3-0.3h1.3c0.1,0,0.3,0.1,0.3,0.3v8h3.6c0.2,0,0.3,0.1,0.3,0.3v1.2
			c0,0.1-0.1,0.3-0.3,0.3h-5.2c-0.2,0-0.3-0.1-0.3-0.3V67.5z"/>
		<path class="st3" d="M43.5,67.5c0-0.1,0.1-0.3,0.3-0.3h1.3c0.1,0,0.3,0.1,0.3,0.3v8H49c0.2,0,0.3,0.1,0.3,0.3v1.2
			c0,0.1-0.1,0.3-0.3,0.3h-5.2c-0.2,0-0.3-0.1-0.3-0.3V67.5z"/>
		<path class="st3" d="M55.6,76.8l4.4-9.6c0-0.1,0.1-0.2,0.2-0.2h0.1c0.1,0,0.2,0.1,0.2,0.2l4.4,9.6c0.1,0.2,0,0.4-0.2,0.4h-1.2
			c-0.2,0-0.3-0.1-0.4-0.3l-0.7-1.5h-4.3l-0.7,1.5c-0.1,0.1-0.2,0.3-0.4,0.3h-1.2C55.6,77.2,55.5,77,55.6,76.8z M61.7,73.8l-1.4-3.1
			h0l-1.4,3.1H61.7z"/>
	</g>
	<g>
		<path class="st3" d="M181.8,76.8l4.4-9.6c0-0.1,0.1-0.2,0.2-0.2h0.1c0.1,0,0.2,0.1,0.2,0.2l4.4,9.6c0.1,0.2,0,0.4-0.2,0.4h-1.2
			c-0.2,0-0.3-0.1-0.4-0.3l-0.7-1.5h-4.3l-0.7,1.5c-0.1,0.1-0.2,0.3-0.4,0.3H182C181.8,77.2,181.7,77,181.8,76.8z M187.9,73.8
			l-1.4-3.1h0l-1.4,3.1H187.9z"/>
		<path class="st3" d="M198.2,67.5c0-0.1,0.1-0.3,0.3-0.3h4.1c1.7,0,3.1,1.4,3.1,3.1c0,1.3-0.9,2.4-2.1,2.9l2,3.6
			c0.1,0.2,0,0.4-0.2,0.4h-1.5c-0.1,0-0.2-0.1-0.2-0.1l-1.9-3.8h-1.6v3.6c0,0.1-0.1,0.3-0.3,0.3h-1.3c-0.2,0-0.3-0.1-0.3-0.3V67.5z
			 M202.4,71.8c0.8,0,1.4-0.7,1.4-1.5c0-0.8-0.7-1.4-1.4-1.4h-2.3v2.8H202.4z"/>
		<path class="st3" d="M213.2,67.5c0-0.1,0.1-0.3,0.3-0.3h1.4c0.2,0,0.3,0.1,0.3,0.3v5.8c0,1.2,0.8,2.2,2.1,2.2c1.2,0,2.1-1,2.1-2.2
			v-5.8c0-0.1,0.1-0.3,0.3-0.3h1.4c0.1,0,0.3,0.1,0.3,0.3v5.9c0,2.2-1.7,3.9-4,3.9c-2.2,0-4-1.8-4-3.9V67.5z"/>
		<path class="st3" d="M229.3,67.5c0-0.1,0.1-0.3,0.3-0.3h3.3c1.7,0,3,1.1,3,2.6c0,1.1-0.9,2-1.6,2.3c0.8,0.2,1.9,1,1.9,2.3
			c0,1.6-1.4,2.8-3.1,2.8h-3.4c-0.2,0-0.3-0.1-0.3-0.3V67.5z M232.7,71.4c0.7,0,1.2-0.6,1.2-1.3c0-0.7-0.5-1.2-1.2-1.2h-1.5v2.5
			H232.7z M232.9,75.5c0.7,0,1.3-0.6,1.3-1.3c0-0.7-0.7-1.2-1.5-1.2h-1.6v2.5H232.9z"/>
		<path class="st3" d="M242.5,76.8l4.4-9.6c0-0.1,0.1-0.2,0.2-0.2h0.1c0.1,0,0.2,0.1,0.2,0.2l4.4,9.6c0.1,0.2,0,0.4-0.2,0.4h-1.2
			c-0.2,0-0.3-0.1-0.4-0.3l-0.7-1.5h-4.3l-0.7,1.5c-0.1,0.1-0.2,0.3-0.4,0.3h-1.2C242.6,77.2,242.4,77,242.5,76.8z M248.7,73.8
			l-1.4-3.1h0l-1.4,3.1H248.7z"/>
	</g>
</g>
</svg>
