<?xml version="1.0" encoding="utf-8"?>
<!-- Generator: Adobe Illustrator 19.2.1, SVG Export Plug-In . SVG Version: 6.00 Build 0)  -->
<svg version="1.1" id="Layer_1" xmlns="http://www.w3.org/2000/svg" xmlns:xlink="http://www.w3.org/1999/xlink" x="0px" y="0px"
	 viewBox="0 0 48 48" style="enable-background:new 0 0 48 48;" xml:space="preserve">
<g>
	<circle cx="12" cy="19.4" r="4"/>
</g>
<g>
	<circle cx="28.8" cy="13" r="4"/>
</g>
<g>
	<circle cx="36" cy="19.4" r="4"/>
</g>
<polygon points="39.7,43.2 42.2,40.8 8.2,6.8 5.8,9.2 "/>
<g>
	<g>
		<path d="M22.2,15.7c1.4-1.6,1.4-4-0.2-5.5c-1.5-1.5-3.9-1.5-5.5-0.2L22.2,15.7z"/>
	</g>
</g>
<g>
	<path d="M22.6,21.2c-0.1,0-0.3,0.1-0.4,0.1c-1.1,0.4-2,1.2-2.8,2.1c-1.4,1.6-2.6,3-4,4.6c-2.1,2.1-4.7,4.4-4.2,7.7
		c0.5,1.6,1.6,3.3,3.7,3.7c1.2,0.2,4.9-0.7,8.9-0.7c0,0,0.1,0,0.1,0s0.1,0,0.1,0c4,0,7.7,0.9,8.9,0.7c2.1-0.5,3.3-2.1,3.7-3.7
		c0-0.1,0-0.3,0-0.4L22.6,21.2z"/>
</g>
</svg>
