<?xml version="1.0" encoding="utf-8"?>
<!-- Generator: Adobe Illustrator 19.2.1, SVG Export Plug-In . SVG Version: 6.00 Build 0)  -->
<svg version="1.1" id="Layer_1" xmlns="http://www.w3.org/2000/svg" xmlns:xlink="http://www.w3.org/1999/xlink" x="0px" y="0px"
	 viewBox="0 0 48 48" style="enable-background:new 0 0 48 48;" xml:space="preserve">
<g>
	<path d="M45.3,32c-0.5,0.1-1,0.2-1.5,0.2c-2.8,0.1-4.3-0.7-5.4-2.9c-0.7-1.3-1.2-2.6-1.5-4c-0.2-1.1-1-1.5-2.1-1.3
		c-0.2,0-0.3,0.1-0.5,0.1c-3.8,1.2-7.7,2.3-11.5,3.5c-2.4,0.8-4.8,0.6-7-0.7c-2-1.2-4-2.3-6.1-3.5c-0.5-0.3-0.6-0.3-0.8,0.3
		c-1.3,3.2-3.5,5.4-6.8,6.7C1.9,30.5,1,30.9,1,30.9c1.1,0.5,2,0.2,2.7,0.1c2.2-0.5,3.9-1.8,5.3-3.5c0.3-0.3,0.4-0.3,0.8-0.1
		c1.9,1.1,3.8,2.2,5.8,3.1c3.7,1.8,7.6,2.3,11.6,1.3c2.3-0.5,4.5-1,6.7-1.9c0.4-0.2,0.7-0.3,1.1-0.5c0.1,0.3,0.3,0.5,0.4,0.7
		c0.7,1.3,1.5,2.4,2.7,3.2c2.1,1.4,4.3,1.7,6.7,1.3c0.8-0.1,1.7-0.2,2.1-1.1C47.3,32.7,46.7,31.7,45.3,32z"/>
	<path d="M24.8,26c1.6-0.5,3.1-1,4.7-1.5c1.6-0.5,3.3-1,4.9-1.5c0.8-0.3,1.3-1.1,1.2-1.8c-0.1-0.9-0.8-1.5-1.8-1.5
		c-0.1,0-0.3,0-0.5,0.1c-3.1,1-6.3,1.9-9.4,2.9c-0.2,0.1-0.4,0.2-0.6,0.3c-0.6,0.5-0.8,1.4-0.5,2.1C23.1,25.9,23.9,26.2,24.8,26z"/>
	<path d="M9.6,14.9c1.1,2.1,2.9,3.5,5,4.6c0.2,0.1,0.3,0.2,0.3,0.5c0.1,2.1,0.5,4.1,1.5,6c0.1,0.2,0.2,0.4,0.4,0.5
		c1.5,0.7,3.1,0.8,4.8,0.4c-0.4-0.3-0.8-0.5-1.2-0.9c-0.3-0.3-0.6-0.7-0.9-1.1c-1-1.8-1.5-3.7-1.1-5.7c0.1-0.4-0.1-0.6-0.5-0.7
		c-3.2-0.8-6.1-2.1-8.3-4.8c-0.1-0.1-0.3-0.4-0.6-0.7c-0.1,0.2,0,0.9,0.1,1C9.3,14.4,9.4,14.7,9.6,14.9z"/>
	<path d="M40.7,28.6c0.9,0,1.6-0.3,2.2-0.9l0.9,0.4c0.2,0.1,0.5,0,0.6-0.3l0.7-1.9c0.1-0.2,0-0.5-0.3-0.6l-1.2-0.5
		c-0.3-1.3-1.5-2.3-2.9-2.3c-1.7,0-3.1,1.3-3.1,3C37.7,27.2,39,28.6,40.7,28.6z"/>
</g>
<circle cx="39.4" cy="19.7" r="0.6"/>
<circle cx="37.8" cy="14.8" r="0.6"/>
<circle cx="38.8" cy="11.2" r="0.6"/>
<circle cx="40.7" cy="17.4" r="0.8"/>
</svg>
