<?xml version="1.0" encoding="utf-8"?>
<!-- Generator: Adobe Illustrator 19.2.1, SVG Export Plug-In . SVG Version: 6.00 Build 0)  -->
<svg version="1.1" id="Layer_1" xmlns="http://www.w3.org/2000/svg" xmlns:xlink="http://www.w3.org/1999/xlink" x="0px" y="0px"
	 viewBox="0 0 48 48" style="enable-background:new 0 0 48 48;" xml:space="preserve">
<path d="M24,2C11.8,2,2,11.8,2,24s9.8,22,22,22s22-9.8,22-22S36.2,2,24,2z M43,24c0,1.6-0.2,3.1-0.6,4.6c-0.5-1.9-1.3-3.7-2.4-5.4
	c-2.9-4.8-7.3-8-12.3-9.6c1.4-2.5,3.4-4.5,5.6-6.1C39.1,10.8,43,16.9,43,24z M13.5,28.9c4,0,7.8-1.1,11-3c1.9,1.1,3.7,2.6,5.1,4.4
	c-3.4,3.1-7.9,5-12.8,5c-3.6,0-7-1-9.9-2.8c-0.8-1.6-1.4-3.3-1.7-5.2C7.8,28.3,10.6,28.9,13.5,28.9z M24.7,13
	c-1.8,3.4-2.6,7.1-2.5,10.8c-2,1-4.2,1.7-6.5,2c-0.9-4.2-0.4-8.6,1.7-12.7c1.8-3.5,4.6-6.2,7.8-8c1.7,0.1,3.4,0.5,5,1
	C28,7.9,26.1,10.2,24.7,13z M19.5,5.6c-1.8,1.7-3.4,3.7-4.7,6.1c-2.4,4.5-3,9.5-2.1,14.2C10,25.7,7.3,25,5,23.9
	C5.1,15,11.2,7.6,19.5,5.6z M10.4,37.3c2,0.6,4.2,1,6.4,1c5.6,0,10.6-2.1,14.5-5.5c1.4,2.4,2.2,4.9,2.5,7.5C31,42,27.6,43,24,43
	C18.7,43,13.9,40.8,10.4,37.3z M36.6,38.2c-0.5-2.5-1.4-5-2.8-7.3c-2.2-3.5-5.1-6.3-8.6-8.1c0-2.2,0.4-4.4,1.3-6.5
	c4.4,1.3,8.4,4.1,11,8.4c1.7,2.9,2.6,6,2.7,9.1C39.2,35.5,38,36.9,36.6,38.2z"/>
</svg>
