<?xml version="1.0" encoding="utf-8"?>
<!-- Generator: Adobe Illustrator 19.2.1, SVG Export Plug-In . SVG Version: 6.00 Build 0)  -->
<svg version="1.1" id="Layer_1" xmlns="http://www.w3.org/2000/svg" xmlns:xlink="http://www.w3.org/1999/xlink" x="0px" y="0px"
	 viewBox="0 0 48 48" style="enable-background:new 0 0 48 48;" xml:space="preserve">
<g>
	<g id="bQoaFF.tif">
		<g>
			<path d="M14.5,2c0.8,0.2,1.7,0.4,2.5,0.6c8.1,1.9,15.2,5.8,20.5,12.3c2.7,3.2,4.3,7,4.9,11.1c0.2,1.2-0.1,1.8-1.9,2.5
				c-4,1.6-7.7,3.9-10.9,6.9c-0.7,0.7-1.1,0.8-1.8,1.3C23.4,25.1,19,13.5,14.5,2z"/>
			<path d="M12.5,26.5c0.8,1.7,1.4,3.2,2.2,4.7c0.1,0.2,0.5,0.2,0.7,0.2c1.3,0,2.6,0,3.9,0c0.5,0,1,0.2,1.4,0.5
				c1.5,1.3,2.9,2.7,4.3,4.2c0.3,0.3,0.5,0.9,0.6,1.3c0.1,0.6-0.3,1.1-0.9,1.4c-0.7,0.3-1.2,0.1-1.7-0.4c-1-1-2.1-1.9-3-3
				c-0.6-0.6-1.3-0.9-2.1-0.9c-1.8,0.1-3.5,0-5.3,0c-1.5,0-2.4-0.6-2.9-2c-0.7-1.7-1.5-3.4-2.2-5c-0.7-1.6,0.2-3.3,2-3.5
				c1.5-0.1,3-0.1,4.6-0.1c1,0,1.8-0.1,2.7-0.6c0.8-0.4,1.6-0.8,2.4-1.1c0.7-0.3,1.3-0.1,1.6,0.5c0.3,0.6,0,1.3-0.7,1.6
				c-1.3,0.6-2.7,1.3-4.1,1.9c-0.4,0.2-0.8,0.1-1.2,0.2C13.9,26.5,13.3,26.5,12.5,26.5z"/>
			<path d="M5.9,20.9c0.1-1.3,1.1-2.3,2.4-2.3c1.3,0,2.3,1.2,2.3,2.4c0,1.3-1.2,2.4-2.5,2.3C6.8,23.4,5.9,22.3,5.9,20.9z"/>
		</g>
	</g>
	<path d="M41.7,41.8c-1.7-0.7-3.4-0.7-5.1,0c-1.7,0.7-3.3,0.7-5,0c-1.7-0.7-3.4-0.7-5.1,0c-1.7,0.7-3.3,0.7-5,0
		c-1.7-0.7-3.4-0.7-5.1,0c-1.7,0.7-3.3,0.7-5,0c-1.7-0.7-3.4-0.7-5.1,0c-0.8,0.3-1.7,0.4-2.5,0.5c0,1.2,0,2.4,0,3.6
		c0.8-0.2,1.7-0.2,2.5-0.5c1.7-0.7,3.4-0.7,5.1,0c1.7,0.7,3.3,0.7,5,0c1.7-0.7,3.4-0.7,5.1,0c1.7,0.7,3.3,0.7,5,0
		c1.7-0.7,3.4-0.7,5.1,0c1.7,0.7,3.3,0.7,5,0c1.7-0.7,3.4-0.7,5.1,0c0.8,0.3,1.6,0.4,2.4,0.5c0-1.2,0-2.4,0-3.6
		C43.3,42.2,42.4,42.1,41.7,41.8z"/>
</g>
</svg>
